<?xml version="1.0" standalone="no"?>
<!DOCTYPE svg PUBLIC "-//W3C//DTD SVG 1.1//EN" "http://www.w3.org/Graphics/SVG/1.1/DTD/svg11.dtd">
<svg xmlns="http://www.w3.org/2000/svg" viewBox="0 0 163.84 13.99" width="163.83999633789062" height="13.989999771118164"><path d="M61.94 6.11h-1a4.29 4.29 0 00-4.09 3.34c-1 3.15 2.45 3.35 4.36.34l-.42 2.06h1.82l1.14-5.71h-1.81m-3.34 4.3c-.18-.18-.24-.66.34-1.82s1.37-1.6 2-1.6a3.45 3.45 0 01.82.1l-.06.26c-.94 1.87-2.7 3.46-3.1 3.06zm29.01-4.33h-1a4.31 4.31 0 00-4.11 3.34c-1 3.15 2.46 3.35 4.37.34l-.42 2.06h1.82l1.13-5.71h-1.79m-3.34 4.33c-.18-.18-.24-.66.34-1.82a2.44 2.44 0 012-1.6 3.38 3.38 0 01.82.1v.26c-1 1.84-2.76 3.43-3.16 3.03zM102 6.11h-1a4.31 4.31 0 00-4 3.31c-1 3.15 2.46 3.35 4.37.34l-.42 2.06h1.82l1.13-5.71H102m-3.3 4.33c-.18-.18-.24-.66.34-1.82S100.42 7 101 7a3.38 3.38 0 01.82.1v.25c-.96 1.9-2.72 3.49-3.12 3.09zM44.27 6.1a9.84 9.84 0 00-1.11 0 4.3 4.3 0 00-4.1 3.34c-1 3.14 2.43 3.35 4.34.37l-.4 1.92a1.6 1.6 0 01-.45.86 1.68 1.68 0 01-1.26.38 5.09 5.09 0 01-.77-.06 6.57 6.57 0 01-.82-.16c-.28-.07-.64-.19-1.09-.35l.13 1.29A9 9 0 0041 14a5.61 5.61 0 001.9-.31 2.69 2.69 0 001.33-.86 5.42 5.42 0 00.77-2.09l.92-4.64h-1.65m-3.47 4.34c-.18-.18-.25-.66.34-1.82s1.37-1.6 2-1.6a3.71 3.71 0 01.91.12c-.93 1.96-2.83 3.72-3.25 3.3zm69.51-4.34a10.18 10.18 0 00-1.12 0 4.3 4.3 0 00-4.1 3.34c-1 3.14 2.43 3.35 4.34.37l-.38 1.94a1.75 1.75 0 01-.45.86 1.69 1.69 0 01-1.26.38 5 5 0 01-.77-.06 6.24 6.24 0 01-.82-.16c-.28-.07-.65-.19-1.1-.35l.13 1.29a9 9 0 002.3.3 5.61 5.61 0 001.9-.31 2.69 2.69 0 001.33-.86 5.42 5.42 0 00.75-2.08L112 6.1h-1.67m-3.47 4.34c-.18-.18-.24-.66.34-1.82a2.44 2.44 0 012-1.6 3.63 3.63 0 01.91.12c-.95 1.96-2.85 3.72-3.27 3.3zm-82.15 1.37l1.53-7.69H30a6.76 6.76 0 012.16.26 2.33 2.33 0 011.14.85 2.74 2.74 0 01.47 1.55 4.88 4.88 0 01-2.47 4.42 6.6 6.6 0 01-3.07.61h-3.52m2.1-1.06h1.08a4 4 0 002.11-.47 3.51 3.51 0 001.31-1.41 3.73 3.73 0 00.46-1.94A1.5 1.5 0 0031 5.59a5.35 5.35 0 00-2.53-.42h-.56zm8 1.06L36 6.1h1.81l-1.14 5.71h-1.86m1.33-6.67l.27-1.35h1.82L38 5.14zM47 11.81l1.17-5.71H50l-1.14 5.71H47m1.32-6.67l.28-1.35h1.81l-.27 1.35zm6.56 6.63a5.05 5.05 0 01-1.21.14 2.14 2.14 0 01-1.4-.36 1.19 1.19 0 01-.44-.82 4.86 4.86 0 01.09-.78l.58-2.88h-1l.21-1h1l.19-1 1.86-.21-.26 1.24h1.39l-.19 1h-1.39l-.55 2.77a1.8 1.8 0 00-.06.51.45.45 0 00.22.42.91.91 0 00.44.12 2.14 2.14 0 00.73-.14l-.21 1m9.98.03l1.63-8.21h1.81l-1.63 8.21h-1.81m15.35-.23a17.35 17.35 0 01-3.46.42 4.2 4.2 0 01-2.75-.79 2.66 2.66 0 01-1-2.11 4.44 4.44 0 01.7-2.53 5.31 5.31 0 012-1.94 6.23 6.23 0 013.1-.72 14.4 14.4 0 012.69.3l-.24 1.25a11.33 11.33 0 00-1.1-.31c-.25-.06-.51-.15-.75-.15a5.79 5.79 0 00-.72 0 3.48 3.48 0 00-1.9.51A3.67 3.67 0 0075.48 7a4 4 0 00-.47 2 1.92 1.92 0 00.66 1.47 2.71 2.71 0 001.77.53 3.75 3.75 0 001.07-.16l.49-2.5h1.85l-.64 3.24m51.88 0a17.35 17.35 0 01-3.46.42 4.2 4.2 0 01-2.72-.79 2.66 2.66 0 01-1-2.11 4.44 4.44 0 01.7-2.53 5.31 5.31 0 012-1.94 6.21 6.21 0 013.1-.72 14.4 14.4 0 012.69.3l-.23 1.25c-.47-.15-.83-.25-1.11-.31s-.53-.11-.77-.14a5.79 5.79 0 00-.72 0 3.48 3.48 0 00-1.9.51A3.67 3.67 0 00127.36 7a4 4 0 00-.48 2 2 2 0 00.67 1.47 2.71 2.71 0 001.77.53 3.75 3.75 0 001.07-.16l.49-2.44h1.85l-.64 3.24m-41.63.17L91.6 6.1h1.81l-.47 2.37a6.28 6.28 0 011.53-1.83A2.61 2.61 0 0196 6h.57l-.48 1.46a2.23 2.23 0 00-.57-.06 2.15 2.15 0 00-1.45.79 14.76 14.76 0 00-1.46 1.74l-.38 1.9h-1.77m43.81-.02l1.13-5.71h1.82l-.47 2.37a6.26 6.26 0 011.52-1.83 2.61 2.61 0 011.57-.64h.57l-.47 1.46a2.34 2.34 0 00-.58-.06 2.17 2.17 0 00-1.45.79 15.73 15.73 0 00-1.45 1.74l-.38 1.9h-1.81m-15.37-.56a9.55 9.55 0 01-1.81.53 8.43 8.43 0 01-1.44.14 3.59 3.59 0 01-1.39-.25 1.89 1.89 0 01-.9-.72 2 2 0 01-.3-1 3.6 3.6 0 01.56-2 4.26 4.26 0 011.57-1.53 4.15 4.15 0 012.07-.44 2.11 2.11 0 011.28.34 1.08 1.08 0 01.48.88 1.68 1.68 0 01-.45 1.19 3.55 3.55 0 01-1.44 1 6.89 6.89 0 01-2.28.45 1.07 1.07 0 00.46.9 1.71 1.71 0 00.87.22 5.42 5.42 0 001.29-.2 8.41 8.41 0 001.66-.64l-.23 1.2m-4-2.44a3.11 3.11 0 001.81-.43 1.12 1.12 0 00.57-.89.46.46 0 00-.17-.35.6.6 0 00-.41-.23 1.59 1.59 0 00-1 .46 2.67 2.67 0 00-.7 1.37zm28.51 3.1a2.93 2.93 0 01-1.83-.54 1.76 1.76 0 01-.72-1.4 3.84 3.84 0 01.58-2A4 4 0 01143 6.44a4.13 4.13 0 012.1-.54 3 3 0 011.88.54 1.81 1.81 0 01.71 1.4 3.73 3.73 0 01-.57 2 4.19 4.19 0 01-1.52 1.55 4.24 4.24 0 01-2.17.54m.35-1a1.6 1.6 0 001.06-.38 2.72 2.72 0 00.72-1.06 3.58 3.58 0 00.26-1.4 1.35 1.35 0 00-.29-.89 1 1 0 00-.77-.3 1.55 1.55 0 00-1 .37 2.66 2.66 0 00-.76 1.08 3.57 3.57 0 00-.26 1.41 1.33 1.33 0 00.3.88 1 1 0 00.72.36zm8.7.9l.52-2.41a7 7 0 01-1.4 1.85 2.33 2.33 0 01-1.6.73 1.17 1.17 0 01-.8-.29 1.2 1.2 0 01-.35-.87 2.93 2.93 0 01.08-.69l.88-4.15h1.78l-.85 4v.21c0 .19.09.28.24.28s.61-.28 1.07-.85a17.29 17.29 0 001.2-1.64l.38-2h1.79l-1.16 5.79h-1.78m3.88 2.12L157.93 6h1.79l-.48 2.4a6.51 6.51 0 011.43-1.76 2.62 2.62 0 011.73-.78 1.27 1.27 0 011 .46 1.49 1.49 0 01.41 1 4.18 4.18 0 01-.69 2.26 5.1 5.1 0 01-1.69 1.78 3.77 3.77 0 01-2 .59 4.73 4.73 0 01-.95-.13l-.42 2.08h-1.78M159 9.83l-.19 1a2 2 0 00.84.19 1.7 1.7 0 001.07-.41 3.34 3.34 0 00.95-1.35A3.68 3.68 0 00162 7.7a.53.53 0 00-.09-.3.32.32 0 00-.29-.13c-.31 0-.75.3-1.31.89A14.24 14.24 0 00159 9.83zM19.28 4.73h-4.15a2.53 2.53 0 00-.9.18L5 8.65a.28.28 0 00-.09.5l4.29 3.6a1.36 1.36 0 00.81.33h5.85a.76.76 0 00.65-.43l.95-2.44a.29.29 0 00-.3-.43h-2a.82.82 0 00-.7.43l-.39 1a.74.74 0 01-.64.44h-.75a1.37 1.37 0 01-.82-.32L9.25 9.4a.27.27 0 01.08-.49L15 6.48a2.83 2.83 0 01.91-.18h2.8a.65.65 0 00.58-.42l.27-.7a.3.3 0 00-.3-.44m-5.3-1L7.71.25A2.25 2.25 0 006.83 0H3.32a.74.74 0 00-.64.43L0 7.61a.31.31 0 00.31.44h3.37a3.12 3.12 0 00.91-.17L14 4.12c.2-.12.21-.28 0-.4zM9.58 4L5.11 5.83a2.77 2.77 0 01-.9.18h-.36a.31.31 0 01-.31-.44l1.23-3.32a.72.72 0 01.63-.44h.35a2.29 2.29 0 01.89.19l3 1.54c.19.15.18.33-.06.46z" fill="#fff" data-name="レイヤー 2"/></svg>