<svg width="80" height="80" viewBox="0 0 80 80" fill="none" xmlns="http://www.w3.org/2000/svg">
<rect x="0.5" y="0.5" width="79" height="79" rx="9.5" fill="white" stroke="#222121"/>
<path d="M39.837 67.4305C38.3904 67.4305 37.4359 66.0178 36.5132 64.6519C36.1253 64.0783 35.4045 63.0114 35.0696 62.8976C34.7511 62.888 33.6507 63.5757 33.0679 63.9528C31.6815 64.8484 30.2459 65.7727 28.9176 65.2096C27.6204 64.659 27.3127 63.0477 27.015 61.4899C26.8854 60.8105 26.6684 59.6737 26.4276 59.4426C26.1525 59.3255 25.0086 59.5517 24.3255 59.6846C22.7635 59.9915 21.1523 60.3071 20.1551 59.3155C19.1505 58.315 19.4707 56.6916 19.7809 55.1225C19.9164 54.4352 20.1434 53.2855 20.0038 52.9778C19.791 52.7629 18.6317 52.5384 17.9393 52.4038C16.3644 52.0981 14.7368 51.7825 14.1854 50.4806C13.6239 49.1544 14.555 47.7397 15.4555 46.3717C15.856 45.7633 16.5266 44.7454 16.507 44.3967C16.3949 44.0944 15.3786 43.4142 14.7711 43.0078C13.4086 42.0959 12 41.1527 12 39.7154C12 38.27 13.4194 37.3193 14.7928 36.3999C15.3672 36.0149 16.4366 35.2987 16.5537 34.9655C16.5721 34.6369 15.8714 33.5612 15.4952 32.9838C14.5942 31.6012 13.6623 30.1714 14.2317 28.8411C14.7861 27.5488 16.4023 27.2427 17.966 26.9468C18.6491 26.8172 19.7934 26.6006 20.0276 26.3594C20.1401 26.0897 19.916 24.9559 19.7822 24.2782C19.4745 22.7208 19.1559 21.1108 20.1555 20.1158C21.1577 19.1203 22.7832 19.4377 24.3568 19.7454C25.0491 19.8808 26.2135 20.1116 26.5191 19.9661C26.7365 19.7546 26.9618 18.6032 27.0965 17.9146C27.4037 16.3456 27.7219 14.7234 29.028 14.1752C30.3542 13.6163 31.7727 14.5444 33.1444 15.4391C33.7586 15.8392 34.7832 16.5257 35.1357 16.4873C35.443 16.3777 36.1545 15.3242 36.5371 14.7577C37.4527 13.4019 38.3992 12 39.8378 12C41.2844 12 42.2389 13.4127 43.1616 14.7786C43.5487 15.3522 44.2699 16.4191 44.6048 16.5324C44.9338 16.5525 46.0238 15.8543 46.6065 15.4776C47.9933 14.5829 49.4277 13.6564 50.7568 14.2213C52.0536 14.7719 52.3617 16.3832 52.6594 17.941C52.7894 18.6204 53.0068 19.7571 53.2476 19.9883C53.5227 20.1058 54.6658 19.8796 55.3498 19.7463C56.9105 19.4406 58.5238 19.1242 59.5201 20.1154C60.5248 21.1159 60.2045 22.7385 59.8943 24.3084C59.7589 24.9957 59.5318 26.1454 59.6715 26.4527C59.8847 26.6684 61.0431 26.8933 61.7351 27.0271C63.31 27.3327 64.938 27.6492 65.489 28.9507C66.0505 30.2761 65.1194 31.6909 64.2189 33.0592C63.8184 33.6675 63.1478 34.6855 63.1674 35.0342C63.2548 35.3967 64.3331 36.6827 66.8423 38.5251C67.2211 38.8036 67.4469 39.2484 67.4469 39.7154C67.4469 40.1824 67.2211 40.6272 66.8436 40.9044C64.3184 42.7598 63.2264 44.0567 63.1252 44.4476C63.1093 44.805 63.805 45.8716 64.1792 46.446C65.081 47.8286 66.0129 49.2588 65.4422 50.5892C64.8891 51.8814 63.272 52.1875 61.7088 52.4834C61.0256 52.613 59.8818 52.8296 59.6476 53.0708C59.5352 53.3409 59.7593 54.4756 59.893 55.1533C60.2007 56.7098 60.5189 58.3194 59.5197 59.314C58.5192 60.3111 56.8912 59.9938 55.3184 59.6848C54.6261 59.5502 53.4638 59.3228 53.1557 59.4641C52.9383 59.6757 52.7134 60.827 52.5783 61.5148C52.271 63.0838 51.9537 64.7063 50.6464 65.2553C49.3248 65.8109 47.9038 64.8857 46.5317 63.9914C45.9576 63.6164 44.864 62.9031 44.5395 62.9429C44.2327 63.0524 43.5207 64.1059 43.1385 64.6724C42.2221 66.0283 41.2752 67.4301 39.8369 67.4301L39.837 67.4305ZM35.078 60.5957C35.2318 60.5957 35.3853 60.6104 35.5387 60.6413C36.7515 60.8884 37.5635 62.0895 38.423 63.3613C38.8147 63.9412 39.5443 65.0203 39.8834 65.1306C40.1213 65.019 40.8408 63.9546 41.2276 63.3826C42.0813 62.1187 42.8874 60.9247 44.0956 60.6819C45.3047 60.4386 46.5112 61.2266 47.7902 62.0612C48.3705 62.4395 49.4483 63.1356 49.8025 63.1164C49.9517 62.9299 50.1883 61.7217 50.315 61.0728C50.5901 59.6698 50.8744 58.2181 51.8874 57.54C52.8983 56.8631 54.2889 57.1357 55.7601 57.4234C56.3742 57.5438 57.4835 57.7612 57.8739 57.6658C57.9634 57.2841 57.7568 56.2402 57.6306 55.6005C57.3546 54.2067 57.0699 52.7647 57.7522 51.76C58.432 50.7583 59.815 50.4961 61.2787 50.219C61.928 50.0957 62.989 49.895 63.3064 49.6667C63.2604 49.2591 62.6069 48.257 62.2474 47.7047C61.4083 46.4175 60.616 45.2021 60.8648 43.9897C61.0864 42.9089 62.3397 41.4728 64.5941 39.7148C62.3632 37.9739 61.124 36.5512 60.9053 35.4784C60.6603 34.2706 61.453 33.0661 62.2921 31.791C62.6496 31.2479 63.298 30.263 63.3478 29.8599C63.0304 29.6258 61.9539 29.4171 61.2954 29.2892C59.8225 29.0032 58.432 28.7336 57.7509 27.7264C57.0682 26.7163 57.3546 25.2647 57.6322 23.8604C57.7522 23.2525 57.9692 22.1539 57.8763 21.765C57.4938 21.6776 56.4378 21.8804 55.7918 22.0071C54.3297 22.2935 52.9501 22.5636 51.9438 21.8879C50.937 21.2111 50.6611 19.7678 50.3943 18.3727C50.263 17.6871 50.0436 16.5407 49.799 16.3091C49.5435 16.3241 48.446 17.0328 47.8562 17.4132C46.5655 18.2473 45.3428 19.0307 44.1345 18.7883C42.9217 18.5416 42.1102 17.3401 41.2506 16.0683C40.8585 15.4884 40.1293 14.4093 39.7902 14.299C39.5523 14.4106 38.8324 15.475 38.4461 16.047C37.5923 17.3109 36.7858 18.5053 35.5776 18.7486C34.3748 18.9894 33.1628 18.2038 31.8847 17.3697C31.304 16.991 30.2166 16.2907 29.8709 16.3141C29.7216 16.5006 29.4854 17.7079 29.3583 18.3573C29.0836 19.7607 28.7989 21.2123 27.7859 21.8905C26.7759 22.5686 25.3862 22.2956 23.9132 22.0071C23.2999 21.8871 22.192 21.6689 21.7994 21.7646C21.71 22.1463 21.9165 23.1907 22.0432 23.8308C22.3183 25.2246 22.603 26.6662 21.9223 27.6709C21.2413 28.6726 19.8587 28.9348 18.3946 29.2119C17.7453 29.3352 16.6846 29.5359 16.3669 29.7633C16.4138 30.1714 17.0664 31.1731 17.4268 31.7258C18.2658 33.013 19.0581 34.2284 18.8089 35.4408C18.5606 36.6515 17.3536 37.4601 16.0755 38.3155C15.4948 38.7052 14.4128 39.4288 14.2995 39.767C14.4145 39.9949 15.481 40.709 16.0542 41.0924C17.3239 41.9427 18.5238 42.7458 18.7688 43.9525C19.0138 45.1599 18.2211 46.3639 17.382 47.6395C17.0246 48.1826 16.3761 49.1675 16.3264 49.5706C16.6437 49.8043 17.7202 50.0133 18.3787 50.1413C19.8517 50.4272 21.243 50.6969 21.9236 51.7041C22.6059 52.715 22.3191 54.1657 22.0424 55.5692C21.9224 56.1771 21.7054 57.2762 21.7982 57.665C22.1807 57.7528 23.2356 57.5496 23.8824 57.423C25.3444 57.1366 26.7261 56.8665 27.7304 57.5421C28.7379 58.219 29.0134 59.6622 29.2801 61.0574C29.4106 61.743 29.6301 62.8894 29.875 63.121C30.1305 63.1059 31.228 62.3973 31.8178 62.016C32.9441 61.2885 34.0169 60.5957 35.078 60.5957L35.078 60.5957Z" fill="#222121"/>
<path d="M48.7021 52.2144L39.7222 47.534L30.7423 52.2144L32.4577 42.3L25.1802 35.2688L35.2362 33.8202L39.7222 24.8097L44.2082 33.8202L54.2642 35.2688L46.9867 42.3L48.7021 52.2144ZM39.7218 44.9352L45.6355 48.0173L44.5067 41.491L49.2786 36.88L42.6826 35.9301L39.7218 29.9826L36.7609 35.9301L30.1649 36.88L34.9369 41.491L33.808 48.0173L39.7218 44.9352Z" fill="#222121"/>
</svg>
