<svg width="80" height="80" viewBox="0 0 80 80" fill="none" xmlns="http://www.w3.org/2000/svg">
<rect x="0.5" y="0.5" width="79" height="79" rx="9.5" fill="white" stroke="#222121"/>
<mask id="path-2-inside-1_410_2703" fill="white">
<path d="M67.0928 35.8597L61.5877 30.3546C60.931 29.6979 60.9309 28.6332 61.5874 27.9763V27.9763C61.9026 27.6609 62.0797 27.2332 62.0797 26.7873V26.2839C62.0797 25.5154 61.7745 24.7784 61.2311 24.235L55.7666 18.7698C55.2233 18.2264 54.4864 17.9212 53.7181 17.9212H53.2147C52.7687 17.9212 52.3409 18.0983 52.0255 18.4137V18.4137C51.3687 19.0706 50.3037 19.0705 49.6469 18.4137L44.1411 12.9071C41.864 10.6309 38.1364 10.6309 35.8583 12.9071L30.3515 18.4139C29.6953 19.0701 28.6313 19.0699 27.9753 18.4135V18.4135C27.6603 18.0983 27.2328 17.9212 26.7871 17.9212H26.2822C25.5133 17.9212 24.7759 18.2267 24.2323 18.7705L18.7678 24.2372C18.2248 24.7805 17.9197 25.5171 17.9197 26.2852V26.7891C17.9197 27.2351 18.0969 27.6628 18.4124 27.978V27.978C19.0691 28.6344 19.0693 29.6989 18.4127 30.3555L12.9085 35.8597C10.6304 38.1378 10.6304 41.8655 12.9085 44.1416L18.4131 49.647C19.07 50.304 19.0698 51.3691 18.4127 52.0259V52.0259C18.097 52.3414 17.9197 52.7693 17.9197 53.2156V53.7188C17.9197 54.487 18.2249 55.2238 18.7681 55.767L24.2332 61.2321C24.7769 61.7757 25.5142 62.0812 26.283 62.0812H26.7873C27.2335 62.0812 27.6614 61.9038 27.9769 61.5882V61.5882C28.6336 60.9311 29.6988 60.9309 30.3557 61.5879L35.8592 67.0914C38.1373 69.3695 41.865 69.3695 44.1421 67.0914L49.6449 61.5886C50.3023 60.9312 51.3683 60.931 52.0259 61.5883V61.5883C52.3417 61.9039 52.7698 62.0812 53.2163 62.0812H53.7188C54.4873 62.0812 55.2244 61.7759 55.7678 61.2325L61.2303 55.7699C61.7742 55.226 62.0797 54.4884 62.0797 53.7193V53.2154C62.0797 52.7692 61.9025 52.3413 61.5871 52.0257V52.0257C60.9302 51.3684 60.9304 50.3031 61.5875 49.646L67.0928 44.1407C69.369 41.8645 69.369 38.1378 67.0928 35.8597M64.3827 43.7288L59.2842 48.8265C59.0371 49.0735 58.6366 49.0735 58.3895 48.8265V48.8265C58.2708 48.7078 58.1099 48.6412 57.9421 48.6412H57.0033C56.2343 48.6412 55.4968 48.9467 54.9531 49.4906L49.488 54.9571C48.9449 55.5004 48.6397 56.2372 48.6397 57.0055V57.9436C48.6397 58.1114 48.7064 58.2723 48.825 58.3909V58.3909C49.0721 58.638 49.072 59.0385 48.825 59.2856L43.7283 64.3813C41.6787 66.4328 38.3226 66.4328 36.272 64.3813L31.1744 59.2837C30.9274 59.0366 30.9274 58.6361 31.1744 58.389V58.389C31.2931 58.2704 31.3597 58.1095 31.3597 57.9417V57.0037C31.3597 56.2353 31.0545 55.4985 30.5113 54.9552L25.0466 49.4898C24.5033 48.9464 23.7664 48.6412 22.9981 48.6412H22.0606C21.8925 48.6412 21.7314 48.7079 21.6125 48.8267V48.8267C21.3651 49.0742 20.9639 49.0742 20.7165 48.8267L15.6186 43.7288C13.5671 41.6792 13.5671 38.3231 15.6186 36.2715L20.7135 31.1757C20.9616 30.9276 21.3638 30.9275 21.612 31.1753V31.1753C21.7312 31.2943 21.8927 31.3612 22.0611 31.3612H22.9975C23.7663 31.3612 24.5035 31.0558 25.0471 30.5123L30.5104 25.0497C31.0542 24.506 31.3597 23.7685 31.3597 22.9995V22.0614C31.3597 21.8931 31.2929 21.7317 31.1739 21.6127V21.6127C30.926 21.3649 30.926 20.9631 31.1739 20.7153L36.272 15.6172C38.3226 13.5676 41.6787 13.5676 43.7283 15.6172L48.8256 20.7153C49.0734 20.9631 49.0734 21.3649 48.8256 21.6127V21.6127C48.7066 21.7317 48.6397 21.8931 48.6397 22.0615V22.9986C48.6397 23.7669 48.9449 24.5038 49.4882 25.0471L54.9531 30.5119C55.4968 31.0557 56.2343 31.3612 57.0032 31.3612H57.9414C58.1096 31.3612 58.271 31.2943 58.39 31.1753V31.1753C58.6378 30.9275 59.0396 30.9275 59.2874 31.1753L64.3827 36.2715C66.4323 38.3231 66.4323 41.6792 64.3827 43.7288"/>
</mask>
<path d="M67.0928 35.8597L61.5877 30.3546C60.931 29.6979 60.9309 28.6332 61.5874 27.9763V27.9763C61.9026 27.6609 62.0797 27.2332 62.0797 26.7873V26.2839C62.0797 25.5154 61.7745 24.7784 61.2311 24.235L55.7666 18.7698C55.2233 18.2264 54.4864 17.9212 53.7181 17.9212H53.2147C52.7687 17.9212 52.3409 18.0983 52.0255 18.4137V18.4137C51.3687 19.0706 50.3037 19.0705 49.6469 18.4137L44.1411 12.9071C41.864 10.6309 38.1364 10.6309 35.8583 12.9071L30.3515 18.4139C29.6953 19.0701 28.6313 19.0699 27.9753 18.4135V18.4135C27.6603 18.0983 27.2328 17.9212 26.7871 17.9212H26.2822C25.5133 17.9212 24.7759 18.2267 24.2323 18.7705L18.7678 24.2372C18.2248 24.7805 17.9197 25.5171 17.9197 26.2852V26.7891C17.9197 27.2351 18.0969 27.6628 18.4124 27.978V27.978C19.0691 28.6344 19.0693 29.6989 18.4127 30.3555L12.9085 35.8597C10.6304 38.1378 10.6304 41.8655 12.9085 44.1416L18.4131 49.647C19.07 50.304 19.0698 51.3691 18.4127 52.0259V52.0259C18.097 52.3414 17.9197 52.7693 17.9197 53.2156V53.7188C17.9197 54.487 18.2249 55.2238 18.7681 55.767L24.2332 61.2321C24.7769 61.7757 25.5142 62.0812 26.283 62.0812H26.7873C27.2335 62.0812 27.6614 61.9038 27.9769 61.5882V61.5882C28.6336 60.9311 29.6988 60.9309 30.3557 61.5879L35.8592 67.0914C38.1373 69.3695 41.865 69.3695 44.1421 67.0914L49.6449 61.5886C50.3023 60.9312 51.3683 60.931 52.0259 61.5883V61.5883C52.3417 61.9039 52.7698 62.0812 53.2163 62.0812H53.7188C54.4873 62.0812 55.2244 61.7759 55.7678 61.2325L61.2303 55.7699C61.7742 55.226 62.0797 54.4884 62.0797 53.7193V53.2154C62.0797 52.7692 61.9025 52.3413 61.5871 52.0257V52.0257C60.9302 51.3684 60.9304 50.3031 61.5875 49.646L67.0928 44.1407C69.369 41.8645 69.369 38.1378 67.0928 35.8597M64.3827 43.7288L59.2842 48.8265C59.0371 49.0735 58.6366 49.0735 58.3895 48.8265V48.8265C58.2708 48.7078 58.1099 48.6412 57.9421 48.6412H57.0033C56.2343 48.6412 55.4968 48.9467 54.9531 49.4906L49.488 54.9571C48.9449 55.5004 48.6397 56.2372 48.6397 57.0055V57.9436C48.6397 58.1114 48.7064 58.2723 48.825 58.3909V58.3909C49.0721 58.638 49.072 59.0385 48.825 59.2856L43.7283 64.3813C41.6787 66.4328 38.3226 66.4328 36.272 64.3813L31.1744 59.2837C30.9274 59.0366 30.9274 58.6361 31.1744 58.389V58.389C31.2931 58.2704 31.3597 58.1095 31.3597 57.9417V57.0037C31.3597 56.2353 31.0545 55.4985 30.5113 54.9552L25.0466 49.4898C24.5033 48.9464 23.7664 48.6412 22.9981 48.6412H22.0606C21.8925 48.6412 21.7314 48.7079 21.6125 48.8267V48.8267C21.3651 49.0742 20.9639 49.0742 20.7165 48.8267L15.6186 43.7288C13.5671 41.6792 13.5671 38.3231 15.6186 36.2715L20.7135 31.1757C20.9616 30.9276 21.3638 30.9275 21.612 31.1753V31.1753C21.7312 31.2943 21.8927 31.3612 22.0611 31.3612H22.9975C23.7663 31.3612 24.5035 31.0558 25.0471 30.5123L30.5104 25.0497C31.0542 24.506 31.3597 23.7685 31.3597 22.9995V22.0614C31.3597 21.8931 31.2929 21.7317 31.1739 21.6127V21.6127C30.926 21.3649 30.926 20.9631 31.1739 20.7153L36.272 15.6172C38.3226 13.5676 41.6787 13.5676 43.7283 15.6172L48.8256 20.7153C49.0734 20.9631 49.0734 21.3649 48.8256 21.6127V21.6127C48.7066 21.7317 48.6397 21.8931 48.6397 22.0615V22.9986C48.6397 23.7669 48.9449 24.5038 49.4882 25.0471L54.9531 30.5119C55.4968 31.0557 56.2343 31.3612 57.0032 31.3612H57.9414C58.1096 31.3612 58.271 31.2943 58.39 31.1753V31.1753C58.6378 30.9275 59.0396 30.9275 59.2874 31.1753L64.3827 36.2715C66.4323 38.3231 66.4323 41.6792 64.3827 43.7288" fill="#222121"/>
<path d="M44.1411 12.9071L44.8483 12.2L44.8481 12.1998L44.1411 12.9071ZM35.8583 12.9071L35.1515 12.1997L35.1512 12.2L35.8583 12.9071ZM12.9085 44.1416L13.6157 43.4346L13.6153 43.4342L12.9085 44.1416ZM35.8592 67.0914L35.1521 67.7985L35.8592 67.0914ZM44.1421 67.0914L43.435 66.3843L43.4349 66.3844L44.1421 67.0914ZM43.7283 64.3813L43.0213 63.6741L43.0209 63.6745L43.7283 64.3813ZM36.272 64.3813L36.9793 63.6744L36.9791 63.6742L36.272 64.3813ZM15.6186 43.7288L16.3257 43.0217L16.3254 43.0214L15.6186 43.7288ZM15.6186 36.2715L16.3257 36.9787L16.3258 36.9786L15.6186 36.2715ZM36.272 15.6172L35.5651 14.9099L35.5649 14.91L36.272 15.6172ZM43.7283 15.6172L44.4355 14.9101L44.4355 14.91L43.7283 15.6172ZM64.3827 36.2715L65.0902 35.5648L65.0899 35.5645L64.3827 36.2715ZM59.2874 31.1753L59.9946 30.4683L59.2874 31.1753ZM31.1739 20.7153L30.4667 20.0082L31.1739 20.7153ZM20.7165 48.8267L20.0094 49.5338L20.7165 48.8267ZM25.0466 49.4898L25.7538 48.7827L25.0466 49.4898ZM30.5113 54.9552L31.2184 54.2481L30.5113 54.9552ZM31.1744 59.2837L31.8815 58.5766L31.1744 59.2837ZM48.825 59.2856L48.1179 58.5784L48.825 59.2856ZM49.488 54.9571L48.7808 54.2501L49.488 54.9571ZM54.9531 49.4906L55.6603 50.1976L54.9531 49.4906ZM59.2842 48.8265L58.5772 48.1193L59.2842 48.8265ZM30.3557 61.5879L29.6486 62.295L30.3557 61.5879ZM24.2332 61.2321L24.9403 60.525L24.2332 61.2321ZM18.7681 55.767L18.061 56.4741L18.7681 55.767ZM18.4131 49.647L17.7059 50.3541L18.4131 49.647ZM54.9531 30.5119L55.6602 29.8048L54.9531 30.5119ZM18.4127 30.3555L17.7056 29.6484L18.4127 30.3555ZM48.8256 20.7153L49.5328 20.0083L48.8256 20.7153ZM24.2323 18.7705L23.5251 18.0635L24.2323 18.7705ZM30.5104 25.0497L29.8033 24.3425L30.5104 25.0497ZM25.0471 30.5123L25.7542 31.2194L25.0471 30.5123ZM20.7135 31.1757L21.4207 31.8828L20.7135 31.1757ZM61.2311 24.235L61.9383 23.5279L61.2311 24.235ZM49.4882 25.0471L48.7811 25.7542L49.4882 25.0471ZM18.7678 24.2372L18.0605 23.5303L18.7678 24.2372ZM61.5877 30.3546L62.2949 29.6475L61.5877 30.3546ZM67.7999 35.1526L62.2949 29.6475L60.8806 31.0617L66.3857 36.5668L67.7999 35.1526ZM63.0797 26.7873V26.2839H61.0797V26.7873H63.0797ZM61.9383 23.5279L56.4738 18.0627L55.0595 19.4768L60.524 24.9421L61.9383 23.5279ZM53.7181 16.9212H53.2147V18.9212H53.7181V16.9212ZM50.3541 17.7066L44.8483 12.2L43.434 13.6141L48.9398 19.1207L50.3541 17.7066ZM44.8481 12.1998C42.1804 9.53325 37.8199 9.53346 35.1515 12.1997L36.5651 13.6145C38.4528 11.7284 41.5476 11.7286 43.4342 13.6143L44.8481 12.1998ZM35.1512 12.2L29.6444 17.7068L31.0586 19.121L36.5654 13.6142L35.1512 12.2ZM26.7871 16.9212H26.2822V18.9212H26.7871V16.9212ZM23.5251 18.0635L18.0605 23.5303L19.475 24.9442L24.9396 19.4774L23.5251 18.0635ZM16.9197 26.2852V26.7891H18.9197V26.2852H16.9197ZM17.7056 29.6484L12.2014 35.1526L13.6156 36.5668L19.1198 31.0626L17.7056 29.6484ZM12.2014 35.1526C9.53296 37.821 9.53254 42.1821 12.2017 44.849L13.6153 43.4342C11.7283 41.5488 11.7279 38.4545 13.6156 36.5668L12.2014 35.1526ZM12.2014 44.8487L17.7059 50.3541L19.1203 48.94L13.6157 43.4346L12.2014 44.8487ZM16.9197 53.2156V53.7188H18.9197V53.2156H16.9197ZM18.061 56.4741L23.5261 61.9392L24.9403 60.525L19.4752 55.0598L18.061 56.4741ZM26.283 63.0812H26.7873V61.0812H26.283V63.0812ZM29.6486 62.295L35.1521 67.7985L36.5663 66.3843L31.0628 60.8808L29.6486 62.295ZM35.1521 67.7985C37.8206 70.467 42.1816 70.4672 44.8494 67.7984L43.4349 66.3844C41.5484 68.2717 38.454 68.2719 36.5663 66.3843L35.1521 67.7985ZM44.8492 67.7985L50.352 62.2957L48.9378 60.8815L43.435 66.3843L44.8492 67.7985ZM53.2163 63.0812H53.7188V61.0812H53.2163V63.0812ZM56.4749 61.9396L61.9374 56.477L60.5232 55.0628L55.0607 60.5253L56.4749 61.9396ZM63.0797 53.7193V53.2154H61.0797V53.7193H63.0797ZM62.2946 50.3531L67.7999 44.8478L66.3857 43.4336L60.8804 48.9389L62.2946 50.3531ZM67.7999 44.8478C70.4668 42.1809 70.4664 37.8213 67.8002 35.1529L66.3854 36.5665C68.2716 38.4543 68.2712 41.5481 66.3857 43.4336L67.7999 44.8478ZM63.6757 43.0217L58.5772 48.1193L59.9912 49.5337L65.0898 44.436L63.6757 43.0217ZM57.9421 47.6412H57.0033V49.6412H57.9421V47.6412ZM54.2459 48.7835L48.7808 54.2501L50.1952 55.6641L55.6603 50.1976L54.2459 48.7835ZM47.6397 57.0055V57.9436H49.6397V57.0055H47.6397ZM48.1179 58.5784L43.0213 63.6741L44.4354 65.0885L49.532 59.9928L48.1179 58.5784ZM43.0209 63.6745C41.362 65.335 38.6394 65.3352 36.9793 63.6744L35.5648 65.0883C38.0058 67.5304 41.9955 67.5307 44.4358 65.0881L43.0209 63.6745ZM36.9791 63.6742L31.8815 58.5766L30.4673 59.9908L35.5649 65.0884L36.9791 63.6742ZM32.3597 57.9417V57.0037H30.3597V57.9417H32.3597ZM31.2184 54.2481L25.7538 48.7827L24.3395 50.1968L29.8041 55.6622L31.2184 54.2481ZM22.9981 47.6412H22.0606V49.6412H22.9981V47.6412ZM21.4236 48.1196L16.3257 43.0217L14.9115 44.4359L20.0094 49.5338L21.4236 48.1196ZM16.3254 43.0214C14.665 41.3626 14.6645 38.6398 16.3257 36.9787L14.9115 35.5644C12.4696 38.0063 12.4691 41.9959 14.9118 44.4363L16.3254 43.0214ZM16.3258 36.9786L21.4207 31.8828L20.0064 30.4687L14.9114 35.5645L16.3258 36.9786ZM22.0611 32.3612H22.9975V30.3612H22.0611V32.3612ZM25.7542 31.2194L31.2175 25.7569L29.8033 24.3425L24.3401 29.8051L25.7542 31.2194ZM32.3597 22.9995V22.0614H30.3597V22.9995H32.3597ZM31.881 21.4224L36.9791 16.3243L35.5649 14.91L30.4667 20.0082L31.881 21.4224ZM36.979 16.3244C38.6391 14.665 41.3623 14.6653 43.0212 16.3243L44.4355 14.91C41.9952 12.4698 38.006 12.4701 35.5651 14.9099L36.979 16.3244ZM43.0212 16.3242L48.1184 21.4223L49.5328 20.0083L44.4355 14.9101L43.0212 16.3242ZM47.6397 22.0615V22.9986H49.6397V22.0615H47.6397ZM48.7811 25.7542L54.246 31.219L55.6602 29.8048L50.1953 24.34L48.7811 25.7542ZM57.0032 32.3612H57.9414V30.3612H57.0032V32.3612ZM58.5803 31.8824L63.6756 36.9786L65.0899 35.5645L59.9946 30.4683L58.5803 31.8824ZM63.6753 36.9783C65.335 38.6396 65.3345 41.3628 63.6756 43.0217L65.0899 44.4359C67.5302 41.9956 67.5297 38.0066 65.0902 35.5648L63.6753 36.9783ZM59.0971 31.8824C58.9544 32.0251 58.723 32.0251 58.5803 31.8824L59.9946 30.4683C59.3563 29.8299 58.3213 29.8298 57.6829 30.4682L59.0971 31.8824ZM57.9414 32.3612C58.3749 32.3612 58.7906 32.1889 59.0971 31.8824L57.6829 30.4682C57.7515 30.3997 57.8444 30.3612 57.9414 30.3612V32.3612ZM31.881 20.9056C32.0237 21.0483 32.0237 21.2797 31.881 21.4224L30.4667 20.0082C29.8284 20.6466 29.8284 21.6815 30.4667 22.3198L31.881 20.9056ZM32.3597 22.0614C32.3597 21.6279 32.1875 21.2122 31.881 20.9056L30.4667 22.3198C30.3982 22.2513 30.3597 22.1584 30.3597 22.0614H32.3597ZM20.9054 48.1196C21.0485 47.9765 21.2805 47.9765 21.4236 48.1196L20.0094 49.5338C20.6473 50.1718 21.6817 50.1718 22.3196 49.5338L20.9054 48.1196ZM22.0606 47.6412C21.6273 47.6412 21.2118 47.8133 20.9054 48.1196L22.3196 49.5338C22.2509 49.6025 22.1577 49.6412 22.0606 49.6412V47.6412ZM25.7538 48.7827C25.0229 48.0518 24.0317 47.6412 22.9981 47.6412V49.6412C23.5012 49.6412 23.9837 49.841 24.3395 50.1968L25.7538 48.7827ZM32.3597 57.0037C32.3597 55.9701 31.9492 54.979 31.2184 54.2481L29.8041 55.6622C30.1599 56.018 30.3597 56.5005 30.3597 57.0037H32.3597ZM31.8815 59.0961C32.1877 58.7899 32.3597 58.3747 32.3597 57.9417H30.3597C30.3597 57.8442 30.3984 57.7508 30.4673 57.6819L31.8815 59.0961ZM31.8815 58.5766C32.025 58.7201 32.025 58.9527 31.8815 59.0961L30.4673 57.6819C29.8297 58.3195 29.8297 59.3532 30.4673 59.9908L31.8815 58.5766ZM48.1179 59.098C47.9744 58.9545 47.9744 58.7219 48.1179 58.5784L49.532 59.9928C50.1697 59.3552 50.1697 58.3214 49.5321 57.6838L48.1179 59.098ZM47.6397 57.9436C47.6397 58.3766 47.8117 58.7919 48.1179 59.098L49.5321 57.6838C49.601 57.7527 49.6397 57.8462 49.6397 57.9436H47.6397ZM48.7808 54.2501C48.0502 54.9809 47.6397 55.9721 47.6397 57.0055H49.6397C49.6397 56.5024 49.8395 56.0199 50.1952 55.6641L48.7808 54.2501ZM57.0033 47.6412C55.9691 47.6412 54.9771 48.0521 54.2459 48.7835L55.6603 50.1976C56.0165 49.8413 56.4996 49.6412 57.0033 49.6412V47.6412ZM59.0966 48.1194C58.7904 47.8132 58.3751 47.6412 57.9421 47.6412V49.6412C57.8447 49.6412 57.7513 49.6025 57.6824 49.5336L59.0966 48.1194ZM58.5772 48.1193C58.7206 47.9759 58.9532 47.9759 59.0966 48.1194L57.6824 49.5336C58.32 50.1711 59.3536 50.1712 59.9912 49.5337L58.5772 48.1193ZM62.2944 51.3188C62.0279 51.0521 62.0279 50.6198 62.2946 50.3531L60.8804 48.9389C59.8328 49.9865 59.8326 51.6848 60.8798 52.7326L62.2944 51.3188ZM28.6842 62.2951C28.9504 62.0287 29.3823 62.0286 29.6486 62.295L31.0628 60.8808C30.0153 59.8332 28.3168 59.8335 27.2695 60.8813L28.6842 62.2951ZM26.7873 63.0812C27.4988 63.0812 28.1812 62.7984 28.6842 62.2951L27.2695 60.8813C27.1417 61.0093 26.9682 61.0812 26.7873 61.0812V63.0812ZM23.5261 61.9392C24.2573 62.6704 25.249 63.0812 26.283 63.0812V61.0812C25.7794 61.0812 25.2964 60.8811 24.9403 60.525L23.5261 61.9392ZM16.9197 53.7188C16.9197 54.7522 17.3302 55.7433 18.061 56.4741L19.4752 55.0598C19.1195 54.7042 18.9197 54.2218 18.9197 53.7188H16.9197ZM17.7058 51.3186C17.2025 51.8216 16.9197 52.504 16.9197 53.2156H18.9197C18.9197 53.0346 18.9916 52.8611 19.1196 52.7332L17.7058 51.3186ZM17.7059 50.3541C17.9723 50.6204 17.9722 51.0523 17.7058 51.3186L19.1196 52.7332C20.1674 51.686 20.1677 49.9876 19.1203 48.94L17.7059 50.3541ZM54.246 31.219C54.9772 31.9503 55.969 32.3612 57.0032 32.3612V30.3612C56.4995 30.3612 56.0164 30.161 55.6602 29.8048L54.246 31.219ZM17.7055 28.6853C17.9715 28.9512 17.9716 29.3824 17.7056 29.6484L19.1198 31.0626C20.167 30.0154 20.1667 28.3176 19.1193 27.2707L17.7055 28.6853ZM48.1184 21.4223C47.9758 21.2796 47.9758 21.0483 48.1185 20.9056L49.5327 22.3198C50.171 21.6815 50.171 20.6466 49.5328 20.0083L48.1184 21.4223ZM26.2822 16.9212C25.248 16.9212 24.2562 17.3321 23.5251 18.0635L24.9396 19.4774C25.2956 19.1213 25.7786 18.9212 26.2822 18.9212V16.9212ZM28.6826 17.7066C28.18 17.2037 27.4981 16.9212 26.7871 16.9212V18.9212C26.9675 18.9212 27.1405 18.9928 27.268 19.1204L28.6826 17.7066ZM29.6444 17.7068C29.3788 17.9724 28.9482 17.9723 28.6826 17.7066L27.268 19.1204C28.3145 20.1675 30.0118 20.1678 31.0586 19.121L29.6444 17.7068ZM63.0797 53.2154C63.0797 52.5041 62.7973 51.8219 62.2944 51.3188L60.8798 52.7326C61.0078 52.8607 61.0797 53.0343 61.0797 53.2154H63.0797ZM31.2175 25.7569C31.9488 25.0256 32.3597 24.0337 32.3597 22.9995H30.3597C30.3597 23.5032 30.1596 23.9864 29.8033 24.3425L31.2175 25.7569ZM51.3184 17.7066C51.0521 17.9729 50.6204 17.9729 50.3541 17.7066L48.9398 19.1207C49.9871 20.1682 51.6852 20.1682 52.7326 19.1209L51.3184 17.7066ZM61.9374 56.477C62.6688 55.7456 63.0797 54.7536 63.0797 53.7193H61.0797C61.0797 54.2232 60.8795 54.7065 60.5232 55.0628L61.9374 56.477ZM22.9975 32.3612C24.0314 32.3612 25.023 31.9505 25.7542 31.2194L24.3401 29.8051C23.984 30.1611 23.5011 30.3612 22.9975 30.3612V32.3612ZM53.2147 16.9212C52.5035 16.9212 51.8213 17.2037 51.3184 17.7066L52.7326 19.1209C52.8605 18.993 53.0339 18.9212 53.2147 18.9212V16.9212ZM53.7188 63.0812C54.7525 63.0812 55.7439 62.6705 56.4749 61.9396L55.0607 60.5253C54.7048 60.8812 54.2221 61.0812 53.7188 61.0812V63.0812ZM20.9055 31.883C21.2121 32.1892 21.6277 32.3612 22.0611 32.3612V30.3612C22.1576 30.3612 22.2503 30.3995 22.3186 30.4677L20.9055 31.883ZM56.4738 18.0627C55.7429 17.3318 54.7517 16.9212 53.7181 16.9212V18.9212C54.2212 18.9212 54.7037 19.121 55.0595 19.4768L56.4738 18.0627ZM51.319 62.2956C51.8223 62.7986 52.5047 63.0812 53.2163 63.0812V61.0812C53.035 61.0812 52.8611 61.0092 52.7328 60.881L51.319 62.2956ZM21.4207 31.8828C21.2785 32.025 21.0478 32.0251 20.9055 31.883L22.3186 30.4677C21.6797 29.8298 20.6447 29.8302 20.0064 30.4687L21.4207 31.8828ZM63.0797 26.2839C63.0797 25.2502 62.6691 24.2589 61.9383 23.5279L60.524 24.9421C60.8798 25.2979 61.0797 25.7806 61.0797 26.2839H63.0797ZM47.6397 22.9986C47.6397 24.0322 48.0503 25.0234 48.7811 25.7542L50.1953 24.34C49.8396 23.9842 49.6397 23.5017 49.6397 22.9986H47.6397ZM16.9197 26.7891C16.9197 27.5004 17.2024 28.1825 17.7055 28.6853L19.1193 27.2707C18.9915 27.143 18.9197 26.9698 18.9197 26.7891H16.9197ZM50.352 62.2957C50.619 62.0287 51.0519 62.0286 51.319 62.2956L52.7328 60.881C51.6846 59.8334 49.9857 59.8336 48.9378 60.8815L50.352 62.2957ZM62.2947 28.6832C62.7974 28.1803 63.0797 27.4983 63.0797 26.7873H61.0797C61.0797 26.9681 61.0079 27.1415 60.8801 27.2694L62.2947 28.6832ZM48.1185 20.9056C47.8119 21.2122 47.6397 21.6279 47.6397 22.0615H49.6397C49.6397 22.1584 49.6012 22.2513 49.5327 22.3198L48.1185 20.9056ZM18.0605 23.5303C17.3301 24.261 16.9197 25.252 16.9197 26.2852H18.9197C18.9197 25.7823 19.1195 25.2999 19.475 24.9442L18.0605 23.5303ZM62.2949 29.6475C62.0286 29.3812 62.0285 28.9495 62.2947 28.6832L60.8801 27.2694C59.8332 28.3169 59.8335 30.0146 60.8806 31.0617L62.2949 29.6475Z" fill="#222121" mask="url(#path-2-inside-1_410_2703)"/>
<mask id="path-4-inside-2_410_2703" fill="white">
<path d="M43.4334 35.1053L41.1044 32.7763C40.811 32.4843 40.4139 32.3204 39.9999 32.3204C39.586 32.3204 39.1889 32.4843 38.8955 32.7763L37.1611 34.5106C36.8218 34.85 36.2819 34.8807 35.9062 34.582V34.582C35.0273 33.8832 33.8817 35.0298 34.5804 35.9089V35.9089C34.8789 36.2846 34.8482 36.8245 34.5089 37.1639L32.7755 38.8973C32.4835 39.1907 32.3195 39.5878 32.3195 40.0018C32.3195 40.4157 32.4835 40.8128 32.7755 41.1062L34.5092 42.84C34.8483 43.1791 34.879 43.7187 34.5806 44.0941V44.0941C33.8821 44.9726 35.028 46.1176 35.9065 45.4192V45.4192C36.282 45.1208 36.8216 45.1515 37.1608 45.4906L38.8964 47.2262C39.1898 47.5182 39.587 47.6822 40.0009 47.6822C40.4149 47.6822 40.812 47.5182 41.1054 47.2262L42.8399 45.4918C43.1791 45.1525 43.7189 45.1218 44.0944 45.4204V45.4204C44.9732 46.1191 46.1189 44.9732 45.4203 44.0944V44.0944C45.1218 43.7188 45.1526 43.1791 45.4918 42.8398L47.2263 41.1053C47.5184 40.8119 47.6823 40.4148 47.6823 40.0008C47.6823 39.5869 47.5184 39.1897 47.2263 38.8963L45.4921 37.1621C45.1527 36.8227 45.122 36.2827 45.4207 35.9069V35.9069C46.1196 35.0277 44.9734 33.8814 44.0941 34.5802L43.4334 35.1053"/>
</mask>
<path d="M43.4334 35.1053L41.1044 32.7763C40.811 32.4843 40.4139 32.3204 39.9999 32.3204C39.586 32.3204 39.1889 32.4843 38.8955 32.7763L37.1611 34.5106C36.8218 34.85 36.2819 34.8807 35.9062 34.582V34.582C35.0273 33.8832 33.8817 35.0298 34.5804 35.9089V35.9089C34.8789 36.2846 34.8482 36.8245 34.5089 37.1639L32.7755 38.8973C32.4835 39.1907 32.3195 39.5878 32.3195 40.0018C32.3195 40.4157 32.4835 40.8128 32.7755 41.1062L34.5092 42.84C34.8483 43.1791 34.879 43.7187 34.5806 44.0941V44.0941C33.8821 44.9726 35.028 46.1176 35.9065 45.4192V45.4192C36.282 45.1208 36.8216 45.1515 37.1608 45.4906L38.8964 47.2262C39.1898 47.5182 39.587 47.6822 40.0009 47.6822C40.4149 47.6822 40.812 47.5182 41.1054 47.2262L42.8399 45.4918C43.1791 45.1525 43.7189 45.1218 44.0944 45.4204V45.4204C44.9732 46.1191 46.1189 44.9732 45.4203 44.0944V44.0944C45.1218 43.7188 45.1526 43.1791 45.4918 42.8398L47.2263 41.1053C47.5184 40.8119 47.6823 40.4148 47.6823 40.0008C47.6823 39.5869 47.5184 39.1897 47.2263 38.8963L45.4921 37.1621C45.1527 36.8227 45.122 36.2827 45.4207 35.9069V35.9069C46.1196 35.0277 44.9734 33.8814 44.0941 34.5802L43.4334 35.1053" fill="#222121"/>
<path d="M41.1044 32.7763L41.8115 32.0692L41.8098 32.0675L41.1044 32.7763ZM38.8955 32.7763L38.1901 32.0675L38.1884 32.0692L38.8955 32.7763ZM32.7755 38.8973L32.0684 38.1902L32.0667 38.1919L32.7755 38.8973ZM32.7755 41.1062L32.0667 41.8116L32.0684 41.8134L32.7755 41.1062ZM38.8964 47.2262L38.1893 47.9334L38.191 47.9351L38.8964 47.2262ZM41.1054 47.2262L41.8108 47.9351L41.8125 47.9334L41.1054 47.2262ZM47.2263 41.1053L47.9335 41.8124L47.9352 41.8107L47.2263 41.1053ZM47.2263 38.8963L47.9352 38.1909L47.9335 38.1892L47.2263 38.8963ZM45.4918 42.8398L44.7847 42.1327L45.4918 42.8398ZM44.0941 34.5802L43.4719 33.7973L44.0941 34.5802ZM45.4921 37.1621L44.785 37.8692L45.4921 37.1621ZM34.5092 42.84L35.2163 42.1329L34.5092 42.84ZM44.1405 34.3982L41.8115 32.0692L40.3973 33.4834L42.7263 35.8124L44.1405 34.3982ZM41.8098 32.0675C41.329 31.589 40.6783 31.3204 39.9999 31.3204V33.3204C40.1495 33.3204 40.293 33.3796 40.399 33.4851L41.8098 32.0675ZM39.9999 31.3204C39.3216 31.3204 38.6709 31.589 38.1901 32.0675L39.6009 33.4851C39.7069 33.3796 39.8504 33.3204 39.9999 33.3204V31.3204ZM38.1884 32.0692L36.454 33.8035L37.8683 35.2178L39.6026 33.4834L38.1884 32.0692ZM33.8018 36.4568L32.0684 38.1902L33.4826 39.6044L35.216 37.871L33.8018 36.4568ZM32.0667 38.1919C31.5882 38.6727 31.3195 39.3234 31.3195 40.0018H33.3195C33.3195 39.8522 33.3788 39.7087 33.4843 39.6027L32.0667 38.1919ZM31.3195 40.0018C31.3195 40.6801 31.5882 41.3308 32.0667 41.8116L33.4843 40.4008C33.3788 40.2948 33.3195 40.1513 33.3195 40.0018H31.3195ZM32.0684 41.8134L33.8021 43.5471L35.2163 42.1329L33.4826 40.3991L32.0684 41.8134ZM36.4537 46.1977L38.1893 47.9334L39.6035 46.5191L37.8679 44.7835L36.4537 46.1977ZM38.191 47.9351C38.6718 48.4136 39.3226 48.6822 40.0009 48.6822V46.6822C39.8513 46.6822 39.7078 46.6229 39.6018 46.5174L38.191 47.9351ZM40.0009 48.6822C40.6792 48.6822 41.33 48.4136 41.8108 47.9351L40.4 46.5174C40.294 46.6229 40.1505 46.6822 40.0009 46.6822V48.6822ZM41.8125 47.9334L43.547 46.1989L42.1328 44.7847L40.3983 46.5191L41.8125 47.9334ZM46.1989 43.5469L47.9335 41.8124L46.5192 40.3982L44.7847 42.1327L46.1989 43.5469ZM47.9352 41.8107C48.4137 41.3299 48.6823 40.6791 48.6823 40.0008H46.6823C46.6823 40.1504 46.623 40.2939 46.5175 40.3999L47.9352 41.8107ZM48.6823 40.0008C48.6823 39.3225 48.4137 38.6717 47.9352 38.1909L46.5175 39.6017C46.623 39.7077 46.6823 39.8512 46.6823 40.0008H48.6823ZM47.9335 38.1892L46.1992 36.455L44.785 37.8692L46.5192 39.6034L47.9335 38.1892ZM43.4719 33.7973L42.8112 34.3224L44.0556 35.8882L44.7163 35.3631L43.4719 33.7973ZM46.2032 43.4721C46.221 43.4945 46.2192 43.5267 46.1989 43.5469L44.7847 42.1327C44.086 42.8314 44.0227 43.9431 44.6375 44.7166L46.2032 43.4721ZM46.2035 36.5292C47.6427 34.7187 45.2826 32.3583 43.4719 33.7973L44.7163 35.3631C44.7313 35.3512 44.7316 35.3548 44.7163 35.3593C44.7013 35.3637 44.6836 35.3654 44.6671 35.3637C44.6374 35.3606 44.6337 35.3505 44.6421 35.3588C44.6505 35.3672 44.6404 35.3635 44.6373 35.3339C44.6356 35.3174 44.6372 35.2996 44.6417 35.2846C44.6462 35.2693 44.6498 35.2697 44.6379 35.2847L46.2035 36.5292ZM36.5288 46.202C36.5064 46.2199 36.4741 46.2181 36.4537 46.1977L37.8679 44.7835C37.1692 44.0848 36.0576 44.0217 35.2843 44.6364L36.5288 46.202ZM46.1992 36.455C46.2193 36.4751 46.2211 36.507 46.2035 36.5292L44.6379 35.2847C44.0228 36.0583 44.0862 37.1703 44.785 37.8692L46.1992 36.455ZM33.7978 43.4718C32.3562 45.285 34.7224 47.638 36.5288 46.202L35.2843 44.6364C35.2694 44.6483 35.2691 44.6446 35.2844 44.6401C35.2995 44.6356 35.3173 44.634 35.3338 44.6357C35.3635 44.6388 35.3673 44.6489 35.359 44.6407C35.3508 44.6324 35.361 44.6363 35.3642 44.6663C35.3659 44.683 35.3643 44.7009 35.3598 44.7161C35.3552 44.7315 35.3515 44.7313 35.3633 44.7164L33.7978 43.4718ZM43.4721 46.2031C45.2833 47.6432 47.641 45.2812 46.2032 43.4721L44.6375 44.7166C44.6494 44.7315 44.6457 44.7318 44.6412 44.7165C44.6367 44.7014 44.6351 44.6836 44.6368 44.6671C44.6399 44.6374 44.65 44.6336 44.6417 44.6419C44.6334 44.6502 44.6373 44.64 44.6671 44.6369C44.6837 44.6352 44.7015 44.6368 44.7166 44.6413C44.732 44.6459 44.7317 44.6495 44.7168 44.6376L43.4721 46.2031ZM33.7975 36.5311C33.7799 36.5089 33.7816 36.477 33.8018 36.4568L35.216 37.871C35.9148 37.1721 35.978 36.0603 35.3632 35.2867L33.7975 36.5311ZM33.8021 43.5471C33.7817 43.5267 33.7799 43.4943 33.7978 43.4718L35.3633 44.7164C35.9782 43.9431 35.9149 42.8315 35.2163 42.1329L33.8021 43.5471ZM43.547 46.1989C43.5267 46.2191 43.4945 46.2209 43.4721 46.2031L44.7168 44.6376C43.9433 44.0227 42.8315 44.0859 42.1328 44.7847L43.547 46.1989ZM36.5286 33.7993C34.7137 32.3564 32.3624 34.7252 33.7975 36.5311L35.3632 35.2867C35.3514 35.2718 35.355 35.2714 35.3595 35.2866C35.3639 35.3016 35.3655 35.3193 35.3638 35.3358C35.3608 35.3653 35.3507 35.3689 35.3591 35.3606C35.3674 35.3522 35.3636 35.3624 35.3337 35.3655C35.3171 35.3673 35.2992 35.3656 35.2841 35.3611C35.2687 35.3566 35.269 35.3529 35.2839 35.3648L36.5286 33.7993ZM36.454 33.8035C36.4742 33.7834 36.5063 33.7816 36.5286 33.7993L35.2839 35.3648C36.0575 35.9798 37.1694 35.9166 37.8683 35.2178L36.454 33.8035Z" fill="#222121" mask="url(#path-4-inside-2_410_2703)"/>
</svg>
