<svg width="80" height="80" viewBox="0 0 80 80" fill="none" xmlns="http://www.w3.org/2000/svg">
<rect x="0.5" y="0.5" width="79" height="79" rx="9.5" fill="white" stroke="#222121"/>
<circle cx="40" cy="40" r="27" fill="white" stroke="#222121" stroke-width="2"/>
<path d="M44.5048 34.808L36.4898 35.8125L36.2028 37.1425L37.7778 37.433C38.8068 37.678 39.0098 38.049 38.7858 39.0745L36.2028 51.2125C35.5238 54.352 36.5703 55.829 39.0308 55.829C40.9383 55.829 43.1538 54.947 44.1583 53.736L44.4663 52.28C43.7663 52.896 42.7443 53.141 42.0653 53.141C41.1028 53.141 40.7528 52.4655 41.0013 51.2755L44.5048 34.808ZM44.7498 27.5C44.7498 28.4283 44.3811 29.3185 43.7247 29.9749C43.0683 30.6313 42.1781 31 41.2498 31C40.3216 31 39.4313 30.6313 38.775 29.9749C38.1186 29.3185 37.7498 28.4283 37.7498 27.5C37.7498 26.5717 38.1186 25.6815 38.775 25.0251C39.4313 24.3687 40.3216 24 41.2498 24C42.1781 24 43.0683 24.3687 43.7247 25.0251C44.3811 25.6815 44.7498 26.5717 44.7498 27.5Z" fill="#222121"/>
</svg>
