<svg width="80" height="80" viewBox="0 0 80 80" fill="none" xmlns="http://www.w3.org/2000/svg">
<rect x="0.5" y="0.5" width="79" height="79" rx="9.5" fill="white" stroke="#222121"/>
<path d="M36.6407 20.6167H37.6407V19.6167V14H42.4271V19.6167V20.6167H43.4271H48.517C50.368 20.6167 52.1149 20.9927 53.4527 21.9L53.4728 21.9137L53.4936 21.9264C54.8765 22.769 56 24.3894 56 26.2335V31.8502H51.2136V26.6305V26.0055L50.6518 25.7316C50.3044 25.5622 49.4707 25.2335 48.517 25.2335H31.5509C30.0725 25.2335 28.8543 26.3853 28.8543 27.8876V31.196C28.8543 31.6515 29.0035 32.0947 29.1781 32.4619C29.3591 32.8425 29.6031 33.2158 29.8718 33.5506C30.1409 33.8858 30.4511 34.2027 30.7772 34.4625C31.0924 34.7136 31.4762 34.9545 31.8933 35.0707L31.9056 35.0741L31.9179 35.0772L49.2878 39.4434C49.2883 39.4435 49.2887 39.4436 49.2892 39.4437C53.2766 40.4611 55.9321 43.7824 55.9321 47.804V51.1124C55.9321 55.1019 52.6035 58.3833 48.4491 58.3833H43.3593H42.3593V59.3833V65H37.5729V59.3833V58.3833H36.5729H31.483C29.632 58.3833 27.8851 58.0073 26.5474 57.1L26.5272 57.0863L26.5064 57.0736C25.1235 56.231 24 54.6106 24 52.7665V47.1498H28.7864V52.3695V52.9945L29.3482 53.2684C29.6843 53.4323 30.4532 53.7665 31.483 53.7665H48.4491C49.9275 53.7665 51.1457 52.6147 51.1457 51.1124V47.804C51.1457 47.3485 50.9965 46.9053 50.8219 46.5381C50.6409 46.1575 50.3969 45.7842 50.1282 45.4494C49.8591 45.1142 49.5489 44.7973 49.2228 44.5375C48.9076 44.2864 48.5238 44.0455 48.1067 43.9293L48.0944 43.9259L48.0821 43.9228L30.7122 39.5566C30.7117 39.5565 30.7112 39.5563 30.7107 39.5562C26.7233 38.5388 24.0679 35.2175 24.0679 31.196V27.8876C24.0679 23.9643 27.4644 20.6167 31.5509 20.6167H36.6407Z" stroke="#222121" stroke-width="2"/>
</svg>
